<?xml version="1.0" encoding="UTF-8" standalone="no"?>
<!DOCTYPE svg PUBLIC "-//W3C//DTD SVG 1.1//EN" "http://www.w3.org/Graphics/SVG/1.1/DTD/svg11.dtd">
<!-- Created with Vectornator (http://vectornator.io/) -->
<svg height="100%" stroke-miterlimit="10" style="fill-rule:nonzero;clip-rule:evenodd;stroke-linecap:round;stroke-linejoin:round;" version="1.1" viewBox="0 0 130.75 130.75" width="100%" xml:space="preserve" xmlns="http://www.w3.org/2000/svg" xmlns:xlink="http://www.w3.org/1999/xlink">
<defs/>
<g id="Layer-1">
<g opacity="1">
<path d="M0 0L130.746 0L130.746 130.746L0 130.746L0 0Z" fill="#61992a" fill-rule="evenodd" opacity="1" stroke="none"/>
<path d="M40.5018 31.6821C40.5018 26.6445 48.1007 25.2896 50.8465 21.963C52.2845 20.2208 52.3411 15.8615 53.4715 14.9195C54.9388 13.6967 56.7246 12.9171 58.3548 11.9218C59.8332 11.019 62.1706 11.4246 63.7883 10.9998C69.7868 9.42467 75.025 7.42985 81.2974 6.79113C83.9493 6.52109 86.7217 7.14534 89.3625 6.79113C92.981 6.30577 95.7578 3.75481 99.2262 3.21004C102.993 2.61843 105.397 4.37254 108.897 4.77263C115.126 5.48473 119.51 2.49709 125.783 2.49709C127.356 2.49709 127.12 7.35955 125.28 7.78546C121.727 8.60799 118.761 10.3033 115.359 11.4374C113.894 11.9256 112.242 11.6804 110.842 12.4013C109.799 12.9382 109.164 14.3047 108.203 14.7094C105.81 15.7175 101.782 15.8475 99.1975 15.3359C98.2876 15.1558 98.2021 14.2383 97.4521 13.9774C95.0704 13.1487 91.945 12.992 89.3863 13.189C87.9874 13.2966 87.1758 13.2505 85.9879 13.7256C83.9234 14.5514 85.3548 14.2888 79.7597 16.6235C76.7865 17.8641 77.8728 18.9828 74.088 18.8207C70.3077 18.6587 68.2864 17.3914 66.797 17.6505C65.1026 17.9453 63.7189 19.2048 62.2504 20.0859C60.6558 21.0426 58.6425 21.4352 57.169 22.5565C54.6627 24.4637 52.3487 26.7797 49.6947 28.6448C47.7969 29.9784 44.5382 30.6269 43.0923 32.0728" fill="#4b4b4b" fill-rule="evenodd" opacity="1" stroke="#909090" stroke-linecap="round" stroke-linejoin="round" stroke-width="1"/>
<path d="M36.9059 30.9168C36.9059 30.9168 37.7606 44.4268 37.017 66.0481C36.2734 87.6694 33.7404 116.639 33.7404 116.639L51.6839 116.5C51.6839 116.5 49.8073 87.9459 49.1067 66.4568C48.4061 44.9676 48.693 31.0205 48.693 31.0205L36.9059 30.9168Z" fill="#d2c7b6" fill-rule="evenodd" opacity="1" stroke="#000000" stroke-linecap="round" stroke-linejoin="round" stroke-width="1"/>
<path d="M42.6558 50.3369" fill="none" fill-rule="evenodd" opacity="1" stroke="#000000" stroke-linecap="round" stroke-linejoin="round" stroke-width="1"/>
<path d="M23.3986 96.2685L23.4615 119.731L50.6074 120.141L50.604 110.031L38.3632 109.99L37.679 96.0339L23.3986 96.2685Z" fill="#4b3021" fill-rule="evenodd" opacity="1" stroke="#000000" stroke-linecap="round" stroke-linejoin="round" stroke-width="1"/>
<path d="M60.1412 70.3017C60.1412 68.4723 60.704 68.0117 61.3128 66.5664C63.8355 60.5773 68.1286 57.3563 73.0716 53.183C73.9607 52.4324 75.1736 52.0663 76.0038 51.0238C76.8557 49.9541 76.8751 48.4723 77.6658 47.418C79.0199 45.6126 83.9621 41.3178 86.1479 40.9535C90.0712 40.2996 93.94 40.6207 97.6671 42.0638C99.0652 42.6051 100.765 44.888 102.39 44.4624C103.089 44.2795 103.645 43.2939 104.212 42.8742C106.369 41.2749 108.41 39.3436 110.853 38.2437C113.993 36.8306 116.79 40.3943 119.318 41.2372C120.324 41.5724 121.487 41.7759 122.447 42.2556C123.914 42.9893 130.174 43.8181 129.203 47.0169C128.777 48.4191 123.716 53.6576 123.716 53.6576C123.716 53.6576 119.167 54.9608 118.56 55.0508C117.047 55.2749 115.628 54.3011 114.18 54.5907C111.332 55.1602 109.547 58.0269 106.917 58.9034C104.972 59.5518 101.483 59.8633 99.4347 59.3512C98.7396 59.1774 98.2707 58.4785 97.5205 58.3205C96.3553 58.0751 94.9896 58.1041 93.95 57.5843C90.5598 55.8891 88.7868 65.1918 87.0787 65.1918C85.7898 65.1918 81.1449 66.728 80.1476 67.7253C79.7469 68.126 79.3751 70.2775 80.0004 70.2775" fill="#f6f6f6" fill-rule="evenodd" opacity="1" stroke="#000000" stroke-linecap="round" stroke-linejoin="round" stroke-width="1"/>
<path d="M48.3909 118.491C48.1112 118.363 47.7253 117.971 47.8933 117.714C48.56 116.691 51.4589 110.078 51.8179 109.225C53.051 106.296 54.1099 103.19 55.0952 100.167C55.8007 98.0037 56.4329 95.8168 57.0996 93.6408C57.3948 92.6775 57.8262 91.5133 57.986 90.5316C58.3388 88.3642 58.4446 85.939 58.6472 83.737C59.102 78.7917 58.2504 73.7569 58.8581 68.8139C58.8604 68.7953 58.8394 68.8692 58.8581 68.8702C59.6123 68.9076 60.3678 68.9093 61.1227 68.9264C62.3598 68.9546 63.5988 68.9264 64.8364 68.9264C70.8709 68.9264 76.9034 68.9424 82.9191 68.9424C83.3693 68.9424 82.9847 72.9664 82.9847 74.0265C82.9847 75.3548 83.0362 82.0004 83.1351 83.9628C83.1831 84.9155 84.0054 91.5785 84.7148 93.9171C85.7265 97.2518 86.8699 100.53 88.1476 103.778C88.9068 105.709 89.2384 107.668 90.0611 109.561C91.0812 111.908 91.819 114.505 93.1559 116.693C93.206 116.775 93.4131 117.845 93.3248 117.875C89.9119 119.013 85.0458 118.072 81.7173 118.072C73.7296 118.072 65.7611 118.466 57.7785 118.466C56.4451 118.466 55.0883 118.312 53.7705 118.466C52.0566 118.665 50.0127 119.231 48.3909 118.491Z" fill="#947b65" fill-rule="evenodd" opacity="1" stroke="#000000" stroke-linecap="round" stroke-linejoin="round" stroke-width="1"/>
</g>
</g>
</svg>
