<?xml version="1.0" encoding="UTF-8" standalone="no"?>
<!DOCTYPE svg PUBLIC "-//W3C//DTD SVG 1.1//EN" "http://www.w3.org/Graphics/SVG/1.1/DTD/svg11.dtd">
<!-- Created with Vectornator (http://vectornator.io/) -->
<svg height="100%" stroke-miterlimit="10" style="fill-rule:nonzero;clip-rule:evenodd;stroke-linecap:round;stroke-linejoin:round;" version="1.1" viewBox="0 0 130.75 130.75" width="100%" xml:space="preserve" xmlns="http://www.w3.org/2000/svg" xmlns:xlink="http://www.w3.org/1999/xlink">
<defs/>
<g id="Layer-1">
<g opacity="1">
<path d="M0 0L130.746 0L130.746 130.746L0 130.746L0 0Z" fill="#6f6d6b" fill-rule="evenodd" opacity="1" stroke="none"/>
<path d="M41.0269 71.0622L40.992 71.0841L18.7879 27.7587C18.7879 27.7587 18.7135 27.2144 18.3085 27.2646C11.0836 28.1605 9.16291 20.0133 9.16291 20.0133L18.2146 15.3709L20.8702 20.3274C20.8702 20.3274 20.8555 24.4087 18.4936 27.2568" fill="none" fill-rule="evenodd" opacity="1" stroke="#623d05" stroke-linecap="round" stroke-linejoin="round" stroke-width="5"/>
<path d="M30.9227 76.1453L52.0032 65.5229L53.5641 68.2784C53.5641 68.2784 53.4275 75.2371 50.3406 76.6028C47.2537 77.9686 45.5519 78.2798 45.5519 78.2798L43.7415 85.2482C43.7415 85.2482 39.6263 86.4336 38.0797 87.6182C36.5332 88.8028 30.9227 76.1453 30.9227 76.1453Z" fill="#828282" fill-rule="evenodd" opacity="1" stroke="#000000" stroke-linecap="round" stroke-linejoin="round" stroke-width="5"/>
<path d="M25.2866 110.874L118.678 110.795L120.02 106.162L109.581 94.778L107.287 92.4412L106.131 85.8922L98.3593 76.3524L94.6016 74.1998L86.9586 74.7426L84.4934 71.6177L83.0802 65.1338L79.6353 61.5115L72.8636 60.1266L69.7843 61.61L66.7984 60.7582L62.9154 61.5067L57.404 64.2908L53.9789 65.0957L52.5094 72.7089L48.3418 76.8443L44.3057 79.1005L43.7441 84.8761L40.6093 86.0738L37.3145 88.0112L33.5337 95.8902L31.4371 97.7622L29.8219 102.558L27.8521 105.679L25.564 107.442L25.2866 110.874Z" fill="#252424" fill-rule="evenodd" opacity="1" stroke="#000000" stroke-linecap="round" stroke-linejoin="round" stroke-width="5"/>
</g>
</g>
</svg>
