<?xml version="1.0" encoding="UTF-8" standalone="no"?>
<!DOCTYPE svg PUBLIC "-//W3C//DTD SVG 1.1//EN" "http://www.w3.org/Graphics/SVG/1.1/DTD/svg11.dtd">
<!-- Created with Vectornator (http://vectornator.io/) -->
<svg height="100%" stroke-miterlimit="10" style="fill-rule:nonzero;clip-rule:evenodd;stroke-linecap:round;stroke-linejoin:round;" version="1.1" viewBox="0 0 130.75 130.75" width="100%" xml:space="preserve" xmlns="http://www.w3.org/2000/svg" xmlns:xlink="http://www.w3.org/1999/xlink">
<defs/>
<g id="Layer-1">
<g opacity="1">
<path d="M0 0L130.746 0L130.746 130.746L0 130.746L0 0Z" fill="#154ee8" fill-rule="evenodd" opacity="1" stroke="none"/>
<path d="M37.9129 25.3858C37.3935 25.4175 33.5214 32.1183 33.5214 32.1183C33.5214 32.1183 31.1267 36.448 30.8536 38.632C30.1734 44.0734 31.2351 49.924 37.882 49.6292C47.7784 49.1903 46.5229 36.965 42.5317 31.2107C41.8745 30.2631 39.0503 25.3165 37.9129 25.3858Z" fill="#0084fa" fill-rule="evenodd" opacity="1" stroke="#ffffff" stroke-linecap="round" stroke-linejoin="round" stroke-width="1"/>
<path d="M63.2741 37.2603C62.5058 37.3071 56.7791 47.2176 56.7791 47.2176C56.7791 47.2176 53.2374 53.621 52.8336 56.8511C51.8276 64.8987 53.3978 73.5517 63.2283 73.1158C77.8649 72.4666 76.0081 54.3856 70.1052 45.8751C69.1332 44.4738 64.9563 37.1578 63.2741 37.2603Z" fill="#0084fa" fill-rule="evenodd" opacity="1" stroke="#ffffff" stroke-linecap="round" stroke-linejoin="round" stroke-width="1"/>
<path d="M92.3679 12.8074C91.8484 12.8391 87.9763 19.5399 87.9763 19.5399C87.9763 19.5399 85.5816 23.8696 85.3086 26.0536C84.6284 31.495 85.6901 37.3456 92.3369 37.0508C102.233 36.6119 100.978 24.3866 96.9866 18.6323C96.3294 17.6847 93.5052 12.7381 92.3679 12.8074Z" fill="#0084fa" fill-rule="evenodd" opacity="1" stroke="#ffffff" stroke-linecap="round" stroke-linejoin="round" stroke-width="1"/>
<path d="M37.5861 73.1601C37.0666 73.1918 33.1946 79.8927 33.1946 79.8927C33.1946 79.8927 30.7998 84.2223 30.5268 86.4063C29.8466 91.8477 30.9083 97.6983 37.5551 97.4036C47.4516 96.9647 46.1961 84.7393 42.2049 78.985C41.5477 78.0375 38.7235 73.0909 37.5861 73.1601Z" fill="#0084fa" fill-rule="evenodd" opacity="1" stroke="#ffffff" stroke-linecap="round" stroke-linejoin="round" stroke-width="1"/>
<path d="M92.3471 56.8641C91.8276 56.8957 87.9556 63.5966 87.9556 63.5966C87.9556 63.5966 85.5608 67.9263 85.2878 70.1103C84.6076 75.5516 85.6693 81.4023 92.3161 81.1075C102.213 80.6686 100.957 68.4432 96.9659 62.689C96.3087 61.7414 93.4845 56.7948 92.3471 56.8641Z" fill="#0084fa" fill-rule="evenodd" opacity="1" stroke="#ffffff" stroke-linecap="round" stroke-linejoin="round" stroke-width="1"/>
<path d="M63.4276 83.2213C62.6594 83.2681 56.9327 93.1786 56.9327 93.1786C56.9327 93.1786 53.3909 99.582 52.9871 102.812C51.9811 110.86 53.5513 119.513 63.3819 119.077C78.0184 118.428 76.1616 100.347 70.2587 91.8361C69.2867 90.4348 65.1098 83.1188 63.4276 83.2213Z" fill="#0084fa" fill-rule="evenodd" opacity="1" stroke="#ffffff" stroke-linecap="round" stroke-linejoin="round" stroke-width="1"/>
<path d="M36.1876 35.843C36.1876 35.2392 36.6771 34.7498 37.2809 34.7498C37.8847 34.7498 38.3741 35.2392 38.3741 35.843C38.3741 36.4468 37.8847 36.9363 37.2809 36.9363C36.6771 36.9363 36.1876 36.4468 36.1876 35.843Z" fill="#ffffff" fill-rule="evenodd" opacity="1" stroke="none"/>
<path d="M37.9009 43.1856C37.9009 42.5818 38.3904 42.0924 38.9941 42.0924C39.5979 42.0924 40.0874 42.5818 40.0874 43.1856C40.0874 43.7894 39.5979 44.2789 38.9941 44.2789C38.3904 44.2789 37.9009 43.7894 37.9009 43.1856Z" fill="#ffffff" fill-rule="evenodd" opacity="1" stroke="none"/>
<path d="M57.3112 60.8176C57.3112 60.1172 57.879 59.5494 58.5794 59.5494C59.2798 59.5494 59.8476 60.1172 59.8476 60.8176C59.8476 61.518 59.2798 62.0858 58.5794 62.0858C57.879 62.0858 57.3112 61.518 57.3112 60.8176Z" fill="#ffffff" fill-rule="evenodd" opacity="1" stroke="none"/>
<path d="M63.6322 52.3158C63.6322 51.6154 64.2 51.0476 64.9004 51.0476C65.6008 51.0476 66.1686 51.6154 66.1686 52.3158C66.1686 53.0162 65.6008 53.584 64.9004 53.584C64.2 53.584 63.6322 53.0162 63.6322 52.3158Z" fill="#ffffff" fill-rule="evenodd" opacity="1" stroke="none"/>
<path d="M67.3934 63.9271C67.3934 63.2267 67.9612 62.6589 68.6616 62.6589C69.362 62.6589 69.9298 63.2267 69.9298 63.9271C69.9298 64.6276 69.362 65.1954 68.6616 65.1954C67.9612 65.1954 67.3934 64.6276 67.3934 63.9271Z" fill="#ffffff" fill-rule="evenodd" opacity="1" stroke="none"/>
<path d="M92.2726 68.5226C92.2726 67.9188 92.762 67.4293 93.3658 67.4293C93.9696 67.4293 94.459 67.9188 94.459 68.5226C94.459 69.1264 93.9696 69.6158 93.3658 69.6158C92.762 69.6158 92.2726 69.1264 92.2726 68.5226Z" fill="#ffffff" fill-rule="evenodd" opacity="1" stroke="none"/>
<path d="M93.3492 23.9471C93.3492 23.2466 93.917 22.6788 94.6175 22.6788C95.3179 22.6788 95.8857 23.2466 95.8857 23.9471C95.8857 24.6475 95.3179 25.2153 94.6175 25.2153C93.917 25.2153 93.3492 24.6475 93.3492 23.9471Z" fill="#ffffff" fill-rule="evenodd" opacity="1" stroke="none"/>
<path d="M90.1705 31.6427C90.1705 30.9423 90.7383 30.3745 91.4387 30.3745C92.1391 30.3745 92.7069 30.9423 92.7069 31.6427C92.7069 32.3431 92.1391 32.9109 91.4387 32.9109C90.7383 32.9109 90.1705 32.3431 90.1705 31.6427Z" fill="#ffffff" fill-rule="evenodd" opacity="1" stroke="none"/>
<path d="M17.299 71.9736L113.302 71.9736L113.302 80.5386L17.299 80.5386L17.299 71.9736Z" fill="#154ee8" fill-rule="evenodd" opacity="1" stroke="none"/>
<path d="M17.382 71.5079L113.251 71.3609" fill="none" fill-rule="evenodd" opacity="1" stroke="#a7a7a7" stroke-linecap="round" stroke-linejoin="round" stroke-width="3"/>
<path d="M17.326 81.0607L113.46 81.1239" fill="none" fill-rule="evenodd" opacity="1" stroke="#a7a7a7" stroke-linecap="round" stroke-linejoin="round" stroke-width="3"/>
</g>
</g>
</svg>
