<?xml version="1.0" encoding="UTF-8" standalone="no"?>
<!DOCTYPE svg PUBLIC "-//W3C//DTD SVG 1.1//EN" "http://www.w3.org/Graphics/SVG/1.1/DTD/svg11.dtd">
<!-- Created with Vectornator (http://vectornator.io/) -->
<svg height="100%" stroke-miterlimit="10" style="fill-rule:nonzero;clip-rule:evenodd;stroke-linecap:round;stroke-linejoin:round;" version="1.1" viewBox="0 0 130.75 130.75" width="100%" xml:space="preserve" xmlns="http://www.w3.org/2000/svg" xmlns:xlink="http://www.w3.org/1999/xlink">
<defs/>
<g id="Layer-1">
<g opacity="1">
<path d="M0 0L130.746 0L130.746 130.746L0 130.746L0 0Z" fill="#99672a" fill-rule="evenodd" opacity="1" stroke="none"/>
<path d="M12.7139 84.8074C12.7139 74.1541 21.3501 65.518 32.0033 65.518C42.6565 65.518 51.2926 74.1541 51.2926 84.8074C51.2926 95.4606 42.6565 104.097 32.0033 104.097C21.3501 104.097 12.7139 95.4606 12.7139 84.8074Z" fill="#000000" fill-rule="evenodd" opacity="1" stroke="#000000" stroke-linecap="round" stroke-linejoin="round" stroke-width="5"/>
<path d="M87.5728 91.2262C87.5728 82.8199 94.3875 76.0052 102.794 76.0052C111.2 76.0052 118.015 82.8199 118.015 91.2262C118.015 99.6326 111.2 106.447 102.794 106.447C94.3875 106.447 87.5728 99.6326 87.5728 91.2262Z" fill="#000000" fill-rule="evenodd" opacity="1" stroke="#000000" stroke-linecap="round" stroke-linejoin="round" stroke-width="5"/>
<path d="M15.7993 63.7293C15.7993 63.7293 41.4442 43.6371 57.489 74.8406C58.6706 77.1385 59.4323 78.3399 59.4323 78.3399L63.4731 81.8498L82.2816 81.8289C82.2816 81.8289 84.0209 71.2583 97.4947 68.6601C106.28 66.9661 113.913 71.5155 113.913 71.5155L116.606 73.9337L117.545 64.6679L117.846 59.2829C117.846 59.2829 113.622 53.6902 107.642 51.0815C97.2869 46.5643 92.7076 48.3794 92.7076 48.3794C92.7076 48.3794 92.4215 35.0601 92.6576 31.3889C92.8937 27.7178 97.4753 29.3077 97.4753 29.3077L97.4452 20.0597C97.4452 20.0597 90.9882 20.0696 89.6378 20.4742C82.325 22.6656 83.169 28.129 83.169 28.129L82.8495 48.38L68.7827 48.3481L69.2245 30.5787L70.6812 30.5386L73.6625 26.4106L26.8994 26.5615L28.6948 31.3002L30.1538 31.5535L28.683 54.8102" fill="#ce3020" fill-rule="evenodd" opacity="1" stroke="#000000" stroke-linecap="round" stroke-linejoin="round" stroke-width="5"/>
<path d="M43.4767 35.0664L57.2607 35.0664C57.8615 35.0664 58.3485 35.5534 58.3485 36.1541L58.3485 46.6941C58.3485 47.2948 57.8615 47.7818 57.2607 47.7818L43.4767 47.7818C42.876 47.7818 42.389 47.2948 42.389 46.6941L42.389 36.1541C42.389 35.5534 42.876 35.0664 43.4767 35.0664Z" fill="#1e88ad" fill-rule="evenodd" opacity="1" stroke="#000000" stroke-linecap="round" stroke-linejoin="round" stroke-width="5"/>
</g>
</g>
</svg>
