<?xml version="1.0" encoding="UTF-8" standalone="no"?>
<!DOCTYPE svg PUBLIC "-//W3C//DTD SVG 1.1//EN" "http://www.w3.org/Graphics/SVG/1.1/DTD/svg11.dtd">
<!-- Created with Vectornator (http://vectornator.io/) -->
<svg height="100%" stroke-miterlimit="10" style="fill-rule:nonzero;clip-rule:evenodd;stroke-linecap:round;stroke-linejoin:round;" version="1.1" viewBox="0 0 130.75 130.75" width="100%" xml:space="preserve" xmlns="http://www.w3.org/2000/svg" xmlns:xlink="http://www.w3.org/1999/xlink">
<defs/>
<g id="Layer-1">
<g opacity="1">
<path d="M0 0L130.746 0L130.746 130.746L0 130.746L0 0Z" fill="#154ee8" fill-rule="evenodd" opacity="1" stroke="none"/>
<path d="M11.739 67.2217C11.739 67.2217 50.3012 14.4501 91.955 59.1956L95.2166 56.0663C95.2166 56.0663 102.272 49.0049 116.005 44.8404C132.685 39.7824 106.192 61.3922 102.468 65.404C97.9338 70.2873 137.493 88.5085 117.298 85.9314C97.7279 83.434 92.1946 75.5172 92.1946 75.5172L89.5784 78.1244C89.5784 78.1244 52.8871 117.389 11.739 67.2217Z" fill="#e99863" fill-rule="evenodd" opacity="1" stroke="#000000" stroke-linecap="round" stroke-linejoin="round" stroke-width="3"/>
<path d="M27.5419 61.4519C27.5419 58.86 29.643 56.7589 32.2349 56.7589C34.8268 56.7589 36.9279 58.86 36.9279 61.4519C36.9279 64.0438 34.8268 66.1449 32.2349 66.1449C29.643 66.1449 27.5419 64.0438 27.5419 61.4519Z" fill="#9cdff8" fill-rule="evenodd" opacity="1" stroke="#000000" stroke-linecap="round" stroke-linejoin="round" stroke-width="2"/>
<path d="M14.1888 67.4059C14.1888 67.4059 18.719 66.8249 20.2917 67.5819" fill="#154ee8" fill-rule="evenodd" opacity="1" stroke="#000000" stroke-linecap="round" stroke-linejoin="round" stroke-width="3"/>
<path d="M43.655 44.9019C43.655 44.9019 54.0792 67.8398 44.4803 80.0473" fill="none" fill-rule="evenodd" opacity="1" stroke="#000000" stroke-linecap="round" stroke-linejoin="round" stroke-width="3"/>
<path d="M30.6844 61.5103C30.6844 60.598 31.4239 59.8584 32.3363 59.8584C33.2486 59.8584 33.9882 60.598 33.9882 61.5103C33.9882 62.4226 33.2486 63.1622 32.3363 63.1622C31.4239 63.1622 30.6844 62.4226 30.6844 61.5103Z" fill="#000000" fill-rule="evenodd" opacity="1" stroke="none"/>
</g>
</g>
</svg>
