<?xml version="1.0" encoding="UTF-8" standalone="no"?>
<!DOCTYPE svg PUBLIC "-//W3C//DTD SVG 1.1//EN" "http://www.w3.org/Graphics/SVG/1.1/DTD/svg11.dtd">
<!-- Created with Vectornator (http://vectornator.io/) -->
<svg height="100%" stroke-miterlimit="10" style="fill-rule:nonzero;clip-rule:evenodd;stroke-linecap:round;stroke-linejoin:round;" version="1.1" viewBox="0 0 130.75 130.75" width="100%" xml:space="preserve" xmlns="http://www.w3.org/2000/svg" xmlns:xlink="http://www.w3.org/1999/xlink">
<defs/>
<clipPath id="ArtboardFrame">
<rect height="130.75" width="130.75" x="0" y="0"/>
</clipPath>
<g clip-path="url(#ArtboardFrame)" id="Layer-1">
<g opacity="1">
<path d="M0 0L130.746 0L130.746 130.75L0 130.75L0 0Z" fill="#154ee8" fill-rule="evenodd" opacity="1" stroke="none"/>
<path d="M13.2585 77.2142C13.2585 76.1199 9.56277 72.4928 8.80407 71.2041C7.6274 69.2054 6.56969 67.1272 5.87028 65.0349C5.12288 62.799 6.0691 59.768 5.04357 57.7234C4.3629 56.3663 2.7553 54.2635 1.73592 53.8937C1.47209 53.798-0.375217 53.3618 0.0824967 53.3618L0 130.75L89.3399 130.75L82.1478 126.221C82.1478 126.221 80.8195 120.963 72.6332 118.402C70.4832 117.73 69.6425 112.608 68.6824 111.786C55.7609 100.717 16.3603 80.0893 16.3603 80.0893L13.2585 77.2142Z" fill="#60cf4d" fill-rule="evenodd" opacity="1" stroke="none"/>
<path d="M116.919 34.2284C116.919 32.7229 115.969 30.9508 115.394 29.8043C114.732 28.4847 115.255 25.3802 115.255 23.7212C115.255 23.669 115.296 23.0449 115.255 23.03C113.398 22.3562 112.446 19.226 110.992 17.7764C109.173 15.9638 106.288 15.2954 104.197 13.9054C102.27 12.6248 99.9551 8.76486 98.9278 6.7163C97.624 4.11649 94.4579 4.05705 92.8265 2.43051C92.4226 2.02783 88.811 0.557223 88.811 0L130.803 0L130.745 130.75L118.989 130.75C118.989 130.75 119.641 128.766 118.524 126.666C117.408 124.565 114.56 122.174 114.56 122.174C114.56 122.174 112.823 115.762 110.036 113.802C107.999 112.369 109.572 109.227 107.937 107.645C100.572 100.525 82.0748 88.7417 82.0748 88.7417L108.748 43.1119L116.919 34.2284Z" fill="#60cf4d" fill-rule="evenodd" opacity="1" stroke="none"/>
<path d="M15.0106 76.2643L111.547 37.9416L120.885 31.6954L125.589 36.3512L119.028 39.8286L119.028 43.5479L102.404 58.4336L95.5544 93.8243L98.771 100.066L68.4273 111.551C68.4273 111.551 36.9389 98.3506 34.2958 93.9566C33.1829 92.1065 26.2042 87.1519 26.2042 87.1519L22.4428 87.6605L18.1191 82.7709L13.2221 82.5263L13.0914 77.0952L15.0106 76.2643Z" fill="#dbdedd" fill-rule="evenodd" opacity="1" stroke="#000000" stroke-linecap="round" stroke-linejoin="round" stroke-width="1"/>
<path d="M115.688 34.1808C115.688 32.3843 116.102 29.9284 114.856 28.6856" fill="#154ee8" fill-rule="evenodd" opacity="1" stroke="none"/>
<path d="M17.3085 82.3556L120.04 39.3941L125.341 36.3173L120.762 31.7709L13.1683 76.6668L13.0821 82.2816L17.3085 82.3556Z" fill="#c4c8c8" fill-rule="evenodd" opacity="1" stroke="#000000" stroke-linecap="round" stroke-linejoin="round" stroke-width="1"/>
<path d="M63.5045 70.2355L63.9481 75.7589L68.8458 74.223L67.5482 69.6328" fill="#848685" fill-rule="evenodd" opacity="1" stroke="none"/>
<path d="M76.113 65.2929L76.5566 70.8162L81.4543 69.2804L80.1567 64.6902" fill="#848685" fill-rule="evenodd" opacity="1" stroke="none"/>
<path d="M64.8811 75.6543L73.6415 112.91L82.3449 110.104L68.3431 74.6485L64.8811 75.6543Z" fill="#fdfffe" fill-rule="evenodd" opacity="1" stroke="none"/>
<path d="M77.3445 70.66L87.6887 105.556L94.0242 103.819L80.2961 69.8627L77.3445 70.66Z" fill="#fdfffe" fill-rule="evenodd" opacity="1" stroke="none"/>
<path d="M72.3482 111.647C72.3948 115.651 75.8822 115.459 77.7683 116.399C80.7407 117.881 84.4778 118.88 87.2484 120.951C88.9643 122.234 90.3317 123.93 92.0431 125.21C94.159 126.792 96.908 127.389 99.3432 128.198C100.28 128.509 101.011 129.334 101.871 129.762C102.303 129.978 109.412 130.936 109.63 130.718C110.062 130.287 110.272 129.644 110.676 129.241C111.875 128.045 108.907 126.495 108.584 125.851C107.75 124.189 106.914 121.754 105.686 120.529C104.937 119.782 103.222 119.365 102.547 118.356C100.358 115.081 98.2139 110.946 95.9333 107.536C94.9557 106.074 94.2079 103.205 92.9694 102.755C92.5272 102.595 89.6146 104.187 89.0486 104.469C87.5881 105.197 87.0744 107.379 85.5409 107.685C83.8528 108.022 81.0435 107.799 79.4792 108.579C78.574 109.03 72.3249 109.646 72.3482 111.647Z" fill="#fdfffe" fill-rule="evenodd" opacity="1" stroke="none"/>
</g>
</g>
</svg>
