<?xml version="1.0" encoding="UTF-8" standalone="no"?>
<!DOCTYPE svg PUBLIC "-//W3C//DTD SVG 1.1//EN" "http://www.w3.org/Graphics/SVG/1.1/DTD/svg11.dtd">
<!-- Created with Vectornator (http://vectornator.io/) -->
<svg height="100%" stroke-miterlimit="10" style="fill-rule:nonzero;clip-rule:evenodd;stroke-linecap:round;stroke-linejoin:round;" version="1.1" viewBox="0 0 130.75 130.75" width="100%" xml:space="preserve" xmlns="http://www.w3.org/2000/svg" xmlns:xlink="http://www.w3.org/1999/xlink">
<defs/>
<g id="Layer-1">
<g opacity="1">
<path d="M0 0L130.746 0L130.746 130.746L0 130.746L0 0Z" fill="#6f6d6b" fill-rule="evenodd" opacity="1" stroke="none"/>
<path d="M8.0115 81.8537L13.3007 87.7586L79.1532 33.5643L74.6918 27.9337L8.0115 81.8537Z" fill="#252424" fill-rule="evenodd" opacity="1" stroke="#000000" stroke-linecap="round" stroke-linejoin="round" stroke-width="3"/>
<path d="M42.5934 19.0611L41.8925 21.8379C41.8925 21.8379 58.7967 26.8827 79.9672 65.8486L82.1871 65.9741C82.1871 65.9741 85.8808 26.048 42.5934 19.0611Z" fill="#828282" fill-rule="evenodd" opacity="1" stroke="#000000" stroke-linecap="round" stroke-linejoin="round" stroke-width="3"/>
<path d="M52.5671 100.293L63.52 91.9099L64.7968 78.1772L80.2533 74.446L87.46 68.916L88.2445 59.8477L97.7877 60.2937L105.524 74.7431L108.934 70.2869L114.038 73.1618L121.294 77.2768L122.204 86.4923L113.612 91.9069L115.194 99.482L115.87 106.733L94.2108 107.896L73.6584 107.667L57.2619 106.44L52.5671 100.293Z" fill="#93514c" fill-rule="evenodd" opacity="1" stroke="#000000" stroke-linecap="round" stroke-linejoin="round" stroke-width="3"/>
</g>
</g>
</svg>
