<?xml version="1.0" encoding="UTF-8" standalone="no"?>
<!DOCTYPE svg PUBLIC "-//W3C//DTD SVG 1.1//EN" "http://www.w3.org/Graphics/SVG/1.1/DTD/svg11.dtd">
<!-- Created with Vectornator (http://vectornator.io/) -->
<svg height="100%" stroke-miterlimit="10" style="fill-rule:nonzero;clip-rule:evenodd;stroke-linecap:round;stroke-linejoin:round;" version="1.1" viewBox="0 0 130.75 130.75" width="100%" xml:space="preserve" xmlns="http://www.w3.org/2000/svg" xmlns:xlink="http://www.w3.org/1999/xlink">
<defs/>
<g id="Layer-1">
<g opacity="1">
<path d="M0 0L130.746 0L130.746 130.746L0 130.746L0 0Z" fill="#61992a" fill-rule="evenodd" opacity="1" stroke="none"/>
<path d="M20.7942 114.193C20.229 113.935 19.4493 113.144 19.7887 112.624C21.1357 110.558 26.9927 97.1965 27.7179 95.4741C30.2093 89.5571 32.3485 83.2802 34.3392 77.1743C35.7644 72.8028 37.0418 68.3845 38.3888 63.9883C38.9852 62.042 39.8567 59.69 40.1795 57.7066C40.8923 53.3278 41.1062 48.4278 41.5154 43.9792C42.4344 33.9878 40.7139 23.8158 41.9416 13.8292C41.9462 13.7915 41.9037 13.941 41.9416 13.9429C43.4652 14.0186 44.9917 14.0219 46.5168 14.0566C49.0162 14.1134 51.5194 14.0566 54.0198 14.0566C66.2116 14.0566 78.3994 14.0888 90.5532 14.0888C91.4628 14.0888 90.6858 22.2186 90.6858 24.3606C90.6858 27.0441 90.7898 40.4705 90.9895 44.4354C91.0865 46.3601 92.748 59.8218 94.1812 64.5464C96.2251 71.2838 98.5353 77.9065 101.117 84.4696C102.651 88.37 103.321 92.3291 104.983 96.1528C107.044 100.894 108.534 106.142 111.235 110.562C111.336 110.728 111.755 112.89 111.576 112.95C104.681 115.248 94.8498 113.347 88.1251 113.347C71.9871 113.347 55.888 114.143 39.7604 114.143C37.0665 114.143 34.3251 113.833 31.6628 114.143C28.2001 114.547 24.0707 115.689 20.7942 114.193Z" fill="#f6f6f6" fill-rule="evenodd" opacity="1" stroke="#000000" stroke-linecap="round" stroke-linejoin="round" stroke-width="5"/>
<path d="M61.5915 63.9769C61.1084 64.8266 60.9883 65.8562 60.9883 65.8562L45.4681 65.8979C45.4681 65.8979 45.8993 60.2946 48.3436 56.0768C50.7879 51.859 55.2452 49.0266 55.2452 49.0266L62.9208 62.4576C62.9208 62.4576 62.0746 63.1273 61.5915 63.9769Z" fill="#000000" fill-rule="evenodd" opacity="1" stroke="none"/>
<path d="M66.745 73.838C67.7222 73.8246 68.671 73.4069 68.671 73.4069L76.5638 86.7703C76.5638 86.7703 71.5132 89.235 66.6384 89.2623C61.7636 89.2895 57.0645 86.8794 57.0645 86.8794L64.7618 73.4608C64.7618 73.4608 65.7677 73.8515 66.745 73.838Z" fill="#000000" fill-rule="evenodd" opacity="1" stroke="none"/>
<path d="M72.0359 64.0628C71.5382 63.2216 70.7041 62.6062 70.7041 62.6062L78.3734 49.1133C78.3734 49.1133 83.0232 52.2696 85.4709 56.4854C87.9186 60.7012 88.1643 65.9767 88.1643 65.9767L72.6947 65.971C72.6947 65.971 72.5335 64.904 72.0359 64.0628Z" fill="#000000" fill-rule="evenodd" opacity="1" stroke="none"/>
<path d="M62.942 67.3388C62.942 65.218 64.6613 63.4987 66.7821 63.4987C68.903 63.4987 70.6223 65.218 70.6223 67.3388C70.6223 69.4597 68.903 71.1789 66.7821 71.1789C64.6613 71.1789 62.942 69.4597 62.942 67.3388Z" fill="#000000" fill-rule="evenodd" opacity="1" stroke="#000000" stroke-linecap="round" stroke-linejoin="round" stroke-width="1"/>
</g>
</g>
</svg>
