<?xml version="1.0" encoding="UTF-8" standalone="no"?>
<!DOCTYPE svg PUBLIC "-//W3C//DTD SVG 1.1//EN" "http://www.w3.org/Graphics/SVG/1.1/DTD/svg11.dtd">
<!-- Created with Vectornator (http://vectornator.io/) -->
<svg height="100%" stroke-miterlimit="10" style="fill-rule:nonzero;clip-rule:evenodd;stroke-linecap:round;stroke-linejoin:round;" version="1.1" viewBox="0 0 130.75 130.75" width="100%" xml:space="preserve" xmlns="http://www.w3.org/2000/svg" xmlns:xlink="http://www.w3.org/1999/xlink">
<defs/>
<g id="Layer-1">
<g opacity="1">
<path d="M0 0L130.746 0L130.746 130.746L0 130.746L0 0Z" fill="#154ee8" fill-rule="evenodd" opacity="1" stroke="none"/>
<path d="M60.7364 120.516C60.7364 120.516 47.4742 114.048 48.5832 102.15C49.2709 94.771 43.3956 92.0746 41.1849 82.9537C39.616 76.4808 46.2209 77.7372 45.5883 71.4607C44.9558 65.1842 39.4295 63.5059 41.7303 56.0878C45.1159 45.1724 46.0009 46.4772 44.6775 30.7694L47.8914 37.5865C47.8914 37.5865 51.8686 38.8334 55.2393 47.4017C57.4527 53.0279 52.981 51.8923 52.7759 58.3833C52.5709 64.8743 60.4948 70.7572 54.4192 73.3656C50.9415 74.8586 52.0841 79.3092 52.0841 79.3092C52.0841 79.3092 60.2793 84.0022 59.3569 91.1917C58.4345 98.3812 55.8199 99.7705 57.3411 108.158C58.8622 116.545 64.1961 119.258 64.1961 119.258" fill="#568d19" fill-rule="evenodd" opacity="1" stroke="#000000" stroke-linecap="round" stroke-linejoin="round" stroke-width="3"/>
<path d="M77.8449 121.666C66.8883 106.861 73.4599 111.88 73.5132 98.2594C73.5462 89.8127 79.6739 87.409 82.7701 77.3093C84.9673 70.1417 78.2517 70.8307 79.4952 63.7815C80.7386 56.7323 86.4187 55.4446 84.8453 46.7735C82.5302 34.0143 81.5195 35.3957 84.3722 17.7254L80.4993 25.1C80.4993 25.1 76.4076 26.0711 72.2073 35.4147C69.4493 41.55 74.0238 40.7603 73.5955 48.1461C73.1673 55.5319 64.6838 61.3218 70.4943 64.9579C73.8202 67.0392 72.7438 69.7248 71.8125 75.0081C70.9014 80.1766 63.6074 76.3701 63.8271 84.6283C64.0468 92.8864 66.5212 94.7538 64.185 104.098C61.8488 113.442 72.0077 121.637 72.0077 121.637" fill="#608a37" fill-rule="evenodd" opacity="1" stroke="#000000" stroke-linecap="round" stroke-linejoin="round" stroke-width="3"/>
<path d="M49.9283 38.4512C49.9283 38.4512 60.6304 15.8593 55.6586 10.7408C50.6867 5.62234 57.7937 12.2682 57.7937 12.2682C57.7937 12.2682 63.9881 18.15 62.0106 35.1512C60.0332 52.1525 74.1389 33.3782 66.1208 57.5037C58.8856 79.2734 73.7755 65.7049 73.5966 84.7548C73.5773 86.8162 73.7666 83.3862 72.9621 92.1709C72.9621 92.1709 71.5848 99.1579 68.6936 105.972C65.9747 112.38 70.3784 119.894 70.3784 119.894L64.2151 120.918C64.2151 120.918 56.374 118.068 59.5201 92.9708C62.6663 67.8741 40.3111 94.3513 53.906 54.3868C56.347 47.211 54.2914 49.7493 51.3217 43.4473C49.5714 39.7329 49.9283 38.4512 49.9283 38.4512Z" fill="#9cc653" fill-rule="evenodd" opacity="1" stroke="#000000" stroke-linecap="round" stroke-linejoin="round" stroke-width="3"/>
</g>
</g>
</svg>
