<?xml version="1.0" encoding="UTF-8" standalone="no"?>
<!DOCTYPE svg PUBLIC "-//W3C//DTD SVG 1.1//EN" "http://www.w3.org/Graphics/SVG/1.1/DTD/svg11.dtd">
<!-- Created with Vectornator (http://vectornator.io/) -->
<svg height="100%" stroke-miterlimit="10" style="fill-rule:nonzero;clip-rule:evenodd;stroke-linecap:round;stroke-linejoin:round;" version="1.1" viewBox="0 0 130.75 130.75" width="100%" xml:space="preserve" xmlns="http://www.w3.org/2000/svg" xmlns:xlink="http://www.w3.org/1999/xlink">
<defs/>
<g id="Layer-1">
<g opacity="1">
<path d="M0 0L130.746 0L130.746 130.746L0 130.746L0 0Z" fill="#61992a" fill-rule="evenodd" opacity="1" stroke="none"/>
<path d="M65.9571 123.593L56.4324 117.974C55.7667 117.581 55.7672 116.945 56.4333 116.553L74.1558 106.13C74.822 105.738 75.9042 105.735 76.5729 106.122L86.2219 111.71C86.8907 112.097 86.8924 112.728 86.2258 113.119L68.3693 123.596C67.7027 123.987 66.6228 123.986 65.9571 123.593Z" fill="#616a72" fill-rule="evenodd" opacity="1" stroke="none"/>
<path d="M67.4763 103.618C67.393 103.66 67.3731 114.701 67.3731 114.701C67.3731 114.701 69.0613 116.373 71.08 116.373C73.0987 116.373 74.356 114.715 74.356 114.715L74.2679 103.448L73.422 104.763C73.422 104.763 71.908 105.742 70.9012 105.407C70.2093 105.176 69.3995 105.162 68.7989 104.762C68.4841 104.552 67.7343 103.486 67.4763 103.618Z" fill="#4e565b" fill-rule="evenodd" opacity="1" stroke="none"/>
<path d="M70.7036 62.8387L70.8222 101.985" fill="none" fill-rule="evenodd" opacity="1" stroke="#c7d9f2" stroke-linecap="round" stroke-linejoin="round" stroke-width="4"/>
<g opacity="1">
<path d="M18.5193 45.1879L49.0625 27.8497L72.7798 87.7074L41.5223 104.941L18.5193 45.1879Z" fill="#eff5ff" fill-rule="evenodd" opacity="1" stroke="#000000" stroke-linecap="round" stroke-linejoin="round" stroke-width="1"/>
<path d="M21.7641 46.5035L28.8861 42.4739L32.4699 51.2913L25.2546 55.3261L21.7641 46.5035Z" fill="#162d72" fill-rule="evenodd" opacity="1" stroke="#000000" stroke-linecap="round" stroke-linejoin="round" stroke-width="1"/>
<path d="M32.0908 40.9067L38.8994 37.0515L42.4663 45.9361L35.6532 49.788L32.0908 40.9067Z" fill="#162d72" fill-rule="evenodd" opacity="1" stroke="#000000" stroke-linecap="round" stroke-linejoin="round" stroke-width="1"/>
<path d="M41.935 35.1766L45.5472 44.1859L51.716 40.8827L48.035 31.776L41.935 35.1766Z" fill="#162d72" fill-rule="evenodd" opacity="1" stroke="#000000" stroke-linecap="round" stroke-linejoin="round" stroke-width="1"/>
<path d="M26.4993 58.6936L33.7354 54.6891L37.0931 63.0402L29.7616 67.2806L26.4993 58.6936Z" fill="#162d72" fill-rule="evenodd" opacity="1" stroke="#000000" stroke-linecap="round" stroke-linejoin="round" stroke-width="1"/>
<path d="M36.9484 52.9242L43.716 49.2781L46.9159 57.4613L40.1748 61.2867L36.9484 52.9242Z" fill="#162d72" fill-rule="evenodd" opacity="1" stroke="#000000" stroke-linecap="round" stroke-linejoin="round" stroke-width="1"/>
<path d="M46.8163 47.4747L53.0019 44.1793L56.2376 52.1924L50.171 55.8068L46.8163 47.4747Z" fill="#162d72" fill-rule="evenodd" opacity="1" stroke="#000000" stroke-linecap="round" stroke-linejoin="round" stroke-width="1"/>
<path d="M31.0378 70.494L38.4335 66.2828L41.8394 74.9464L34.3451 79.175L31.0378 70.494Z" fill="#162d72" fill-rule="evenodd" opacity="1" stroke="#000000" stroke-linecap="round" stroke-linejoin="round" stroke-width="1"/>
<path d="M41.584 64.4921L48.2245 60.7846L51.6207 69.4665L44.961 73.1776L41.584 64.4921Z" fill="#162d72" fill-rule="evenodd" opacity="1" stroke="#000000" stroke-linecap="round" stroke-linejoin="round" stroke-width="1"/>
<path d="M51.3703 58.9266L54.7387 67.7504L60.8688 64.1777L57.4681 55.3962L51.3703 58.9266Z" fill="#162d72" fill-rule="evenodd" opacity="1" stroke="#000000" stroke-linecap="round" stroke-linejoin="round" stroke-width="1"/>
<path d="M35.64 82.3837L43.0977 78.137L46.2247 85.9971L38.7222 90.3091L35.64 82.3837Z" fill="#162d72" fill-rule="evenodd" opacity="1" stroke="#000000" stroke-linecap="round" stroke-linejoin="round" stroke-width="1"/>
<path d="M46.1933 76.4383L53.0685 72.6408L56.0748 80.4055L49.3667 84.4113L46.1933 76.4383Z" fill="#162d72" fill-rule="evenodd" opacity="1" stroke="#000000" stroke-linecap="round" stroke-linejoin="round" stroke-width="1"/>
<path d="M56.1506 70.9633L59.2246 78.7058L65.3915 75.3747L62.209 67.3405L56.1506 70.9633Z" fill="#162d72" fill-rule="evenodd" opacity="1" stroke="#000000" stroke-linecap="round" stroke-linejoin="round" stroke-width="1"/>
<path d="M39.9859 93.7565L42.6144 100.726L50.2059 96.5691L47.4501 89.3102L39.9859 93.7565Z" fill="#162d72" fill-rule="evenodd" opacity="1" stroke="#000000" stroke-linecap="round" stroke-linejoin="round" stroke-width="1"/>
<path d="M50.6342 87.5756L57.266 83.8667L60.1712 91.117L53.4221 94.7666L50.6342 87.5756Z" fill="#162d72" fill-rule="evenodd" opacity="1" stroke="#000000" stroke-linecap="round" stroke-linejoin="round" stroke-width="1"/>
<path d="M60.3617 82.1021L63.4847 89.3761L69.5074 86.0583L66.5656 78.4485L60.3617 82.1021Z" fill="#162d72" fill-rule="evenodd" opacity="1" stroke="#000000" stroke-linecap="round" stroke-linejoin="round" stroke-width="1"/>
</g>
<g opacity="1">
<path d="M53.2641 25.5868L76.4846 85.2582L108.317 67.1551L85.22 7.7089L53.2641 25.5868Z" fill="#eff5ff" fill-rule="evenodd" opacity="1" stroke="#000000" stroke-linecap="round" stroke-linejoin="round" stroke-width="1"/>
<path d="M56.9435 27.3088L60.4651 35.9451L68.0358 31.5001L64.7643 23.1554L56.9435 27.3088Z" fill="#162d72" fill-rule="evenodd" opacity="1" stroke="#000000" stroke-linecap="round" stroke-linejoin="round" stroke-width="1"/>
<path d="M67.8949 21.421L74.552 17.7282L77.8578 25.9784L71.3336 29.8473L67.8949 21.421Z" fill="#162d72" fill-rule="evenodd" opacity="1" stroke="#000000" stroke-linecap="round" stroke-linejoin="round" stroke-width="1"/>
<path d="M77.584 15.8473L81.0374 24.2786L87.489 20.5297L84.2731 12.0558L77.584 15.8473Z" fill="#162d72" fill-rule="evenodd" opacity="1" stroke="#000000" stroke-linecap="round" stroke-linejoin="round" stroke-width="1"/>
<path d="M61.4372 39.2327L69.5014 34.7782L72.6559 43.3599L64.8869 47.7218L61.4372 39.2327Z" fill="#162d72" fill-rule="evenodd" opacity="1" stroke="#000000" stroke-linecap="round" stroke-linejoin="round" stroke-width="1"/>
<path d="M72.3198 33.1272L75.6628 41.686L82.5077 37.7346L79.0508 29.2284L72.3198 33.1272Z" fill="#162d72" fill-rule="evenodd" opacity="1" stroke="#000000" stroke-linecap="round" stroke-linejoin="round" stroke-width="1"/>
<path d="M82.1785 27.5846L85.6239 35.8227L92.1568 32.1432L88.877 23.7069L82.1785 27.5846Z" fill="#162d72" fill-rule="evenodd" opacity="1" stroke="#000000" stroke-linecap="round" stroke-linejoin="round" stroke-width="1"/>
<path d="M66.1816 50.9964L73.9147 46.6883L77.4369 55.2738L69.5396 59.4493L66.1816 50.9964Z" fill="#162d72" fill-rule="evenodd" opacity="1" stroke="#000000" stroke-linecap="round" stroke-linejoin="round" stroke-width="1"/>
<path d="M77.0649 44.8741L80.5446 53.4159L87.2365 49.6215L83.8152 41.012L77.0649 44.8741Z" fill="#162d72" fill-rule="evenodd" opacity="1" stroke="#000000" stroke-linecap="round" stroke-linejoin="round" stroke-width="1"/>
<path d="M86.9708 39.2852L93.4623 35.6008L96.8224 44.3696L90.3547 47.9548L86.9708 39.2852Z" fill="#162d72" fill-rule="evenodd" opacity="1" stroke="#000000" stroke-linecap="round" stroke-linejoin="round" stroke-width="1"/>
<path d="M70.763 62.8225L74.0636 71.1438L82.0001 66.6573L78.6542 58.4086L70.763 62.8225Z" fill="#162d72" fill-rule="evenodd" opacity="1" stroke="#000000" stroke-linecap="round" stroke-linejoin="round" stroke-width="1"/>
<path d="M81.8465 56.7785L85.0331 64.732L91.6415 60.8384L88.5365 52.8383L81.8465 56.7785Z" fill="#162d72" fill-rule="evenodd" opacity="1" stroke="#000000" stroke-linecap="round" stroke-linejoin="round" stroke-width="1"/>
<path d="M91.6134 51.1894L98.1391 47.5865L101.197 55.3597L94.8946 59.0773L91.6134 51.1894Z" fill="#162d72" fill-rule="evenodd" opacity="1" stroke="#000000" stroke-linecap="round" stroke-linejoin="round" stroke-width="1"/>
<path d="M75.3907 74.5244L83.2415 69.9218L85.8311 76.4363L77.8211 80.9158L75.3907 74.5244Z" fill="#162d72" fill-rule="evenodd" opacity="1" stroke="#000000" stroke-linecap="round" stroke-linejoin="round" stroke-width="1"/>
<path d="M86.3076 68.0931L93.0274 64.2487L95.6287 70.8441L88.9348 74.6538L86.3076 68.0931Z" fill="#162d72" fill-rule="evenodd" opacity="1" stroke="#000000" stroke-linecap="round" stroke-linejoin="round" stroke-width="1"/>
<path d="M96.0625 62.4009L98.7693 69.0505L104.995 65.4515L102.353 58.6859L96.0625 62.4009Z" fill="#162d72" fill-rule="evenodd" opacity="1" stroke="#000000" stroke-linecap="round" stroke-linejoin="round" stroke-width="1"/>
</g>
<path d="M68.4659 101.816C68.4038 103.545 69.9905 104.131 70.6597 104.149C72.943 104.21 72.6254 102.464 73.1037 101.986C73.6541 101.436 74.3837 103.125 74.2783 103.547C73.5703 106.379 68.7075 106.133 67.6175 103.953C67.3388 103.396 67.6398 102.84 67.8106 102.328C67.8548 102.195 68.4712 101.67 68.4659 101.816Z" fill="#374044" fill-rule="evenodd" opacity="1" stroke="none"/>
</g>
</g>
</svg>
