<?xml version="1.0" encoding="UTF-8" standalone="no"?>
<!DOCTYPE svg PUBLIC "-//W3C//DTD SVG 1.1//EN" "http://www.w3.org/Graphics/SVG/1.1/DTD/svg11.dtd">
<!-- Created with Vectornator (http://vectornator.io/) -->
<svg height="100%" stroke-miterlimit="10" style="fill-rule:nonzero;clip-rule:evenodd;stroke-linecap:round;stroke-linejoin:round;" version="1.1" viewBox="0 0 130.75 130.75" width="100%" xml:space="preserve" xmlns="http://www.w3.org/2000/svg" xmlns:xlink="http://www.w3.org/1999/xlink">
<defs/>
<g id="Layer-1">
<g opacity="1">
<path d="M0 0L130.746 0L130.746 130.746L0 130.746L0 0Z" fill="#6f6d6b" fill-rule="evenodd" opacity="1" stroke="none"/>
<path d="M8.0115 81.8537L13.3007 87.7586L79.1532 33.5643L74.6918 27.9337L8.0115 81.8537Z" fill="#252424" fill-rule="evenodd" opacity="1" stroke="#000000" stroke-linecap="round" stroke-linejoin="round" stroke-width="3"/>
<path d="M42.5934 19.0611L41.8925 21.8379C41.8925 21.8379 58.7967 26.8827 79.9672 65.8486L82.1871 65.9741C82.1871 65.9741 85.8808 26.048 42.5934 19.0611Z" fill="#828282" fill-rule="evenodd" opacity="1" stroke="#000000" stroke-linecap="round" stroke-linejoin="round" stroke-width="3"/>
<path d="M52.5671 100.293L63.52 91.9099L64.7968 78.1772L80.2533 74.446L87.46 68.916L88.2445 59.8477L97.7877 60.2937L105.524 74.7431L108.269 82.1139L119.538 64.6274L127.998 84.1988L113.612 91.9069L115.194 99.482L115.87 106.733L94.2108 107.896L73.6584 107.667L57.2619 106.44L52.5671 100.293Z" fill="#4c414c" fill-rule="evenodd" opacity="1" stroke="#000000" stroke-linecap="round" stroke-linejoin="round" stroke-width="3"/>
<path d="M70.0536 86.1326L78.4989 81.8717L73.9273 90.5634L70.0536 86.1326Z" fill="#5ad701" fill-rule="evenodd" opacity="1" stroke="none"/>
<path d="M87.8873 83.4077L92.3907 80.1575L95.8343 75.0927L96.2628 84.904L87.8873 83.4077Z" fill="#5ad701" fill-rule="evenodd" opacity="1" stroke="none"/>
<path d="M82.7891 101.412L85.1376 96.3788L85.6762 90.2779L90.8319 98.6364L82.7891 101.412Z" fill="#5ad701" fill-rule="evenodd" opacity="1" stroke="none"/>
<path d="M63.1044 104.173L65.4528 99.1406L71.1472 101.398L63.1044 104.173Z" fill="#5ad701" fill-rule="evenodd" opacity="1" stroke="none"/>
<path d="M97.3874 99.9045L100.003 93.8568L105.763 101.401L97.3874 99.9045Z" fill="#5ad701" fill-rule="evenodd" opacity="1" stroke="none"/>
<path d="M102.209 32.2562C101.84 32.9052 101.749 33.6916 101.749 33.6916L89.8937 33.7235C89.8937 33.7235 90.2231 29.4435 92.0901 26.2217C93.9572 23 97.3619 20.8365 97.3619 20.8365L103.225 31.0957C103.225 31.0957 102.578 31.6072 102.209 32.2562Z" fill="#000000" fill-rule="evenodd" opacity="1" stroke="none"/>
<path d="M106.146 39.7885C106.892 39.7782 107.617 39.4592 107.617 39.4592L113.646 49.6667C113.646 49.6667 109.788 51.5493 106.064 51.5701C102.341 51.591 98.7515 49.75 98.7515 49.75L104.631 39.5003C104.631 39.5003 105.399 39.7988 106.146 39.7885Z" fill="#000000" fill-rule="evenodd" opacity="1" stroke="none"/>
<path d="M110.187 32.3218C109.807 31.6792 109.17 31.2091 109.17 31.2091L115.028 20.9027C115.028 20.9027 118.58 23.3136 120.449 26.5338C122.319 29.7541 122.507 33.7837 122.507 33.7837L110.69 33.7793C110.69 33.7793 110.567 32.9643 110.187 32.3218Z" fill="#000000" fill-rule="evenodd" opacity="1" stroke="none"/>
<path d="M103.241 34.8241C103.241 33.2041 104.554 31.8909 106.174 31.8909C107.794 31.8909 109.107 33.2041 109.107 34.8241C109.107 36.4441 107.794 37.7574 106.174 37.7574C104.554 37.7574 103.241 36.4441 103.241 34.8241Z" fill="#000000" fill-rule="evenodd" opacity="1" stroke="#000000" stroke-linecap="round" stroke-linejoin="round" stroke-width="1"/>
<path d="M115.213 83.523L117.561 78.4902L118.403 84.3115L115.213 83.523Z" fill="#5ad701" fill-rule="evenodd" opacity="1" stroke="none"/>
</g>
</g>
</svg>
